<svg width="380" height="50">
 <g font-family="Arial" font-weight="bold" font-size="66.5">
  <text fill="#0000EE" x="0" y="0"  transform="matrix(0.59,0,0,0.049,0,49)">C</text>
  <text fill="#DD0000" x="0" y="0"  transform="matrix(0.65,0,0,0.234,1,46.55)">T</text>
  <text fill="#00BB00" x="0" y="0"  transform="matrix(0.53,0,0,0.319,2,34.85)">A</text>
  <text fill="#F9A500" x="0" y="0"  transform="matrix(0.55,0,0,0.398,0,18.9)">G</text>
  
  <text fill="#0000EE" x="0" y="0"  transform="matrix(0.59,0,0,0.037,25,49)">C</text>
  <text fill="#DD0000" x="0" y="0"  transform="matrix(0.65,0,0,0.102,26,47.15)">T</text>
  <text fill="#00BB00" x="0" y="0"  transform="matrix(0.53,0,0,0.147,27,42.05)">A</text>
  <text fill="#F9A500" x="0" y="0"  transform="matrix(0.55,0,0,0.714,25,34.7)">G</text>
  
  <text fill="#00BB00" x="0" y="0"  transform="matrix(0.53,0,0,0.049,52,49)">A</text>
  <text fill="#0000EE" x="0" y="0"  transform="matrix(0.59,0,0,0.068,50,46.55)">C</text>
  <text fill="#F9A500" x="0" y="0"  transform="matrix(0.55,0,0,0.116,50,43.15)">G</text>
  <text fill="#DD0000" x="0" y="0"  transform="matrix(0.65,0,0,0.768,51,37.35)">T</text>
  
  <text fill="#F9A500" x="0" y="0"  transform="matrix(0.55,0,0,0.092,75,49)">G</text>
  <text fill="#0000EE" x="0" y="0"  transform="matrix(0.59,0,0,0.104,75,44.4)">C</text>
  <text fill="#00BB00" x="0" y="0"  transform="matrix(0.53,0,0,0.129,77,39.2)">A</text>
  <text fill="#DD0000" x="0" y="0"  transform="matrix(0.65,0,0,0.675,76,32.75)">T</text>
  
  <text fill="#0000EE" x="0" y="0"  transform="matrix(0.59,0,0,0.007,100,49)">C</text>
  <text fill="#DD0000" x="0" y="0"  transform="matrix(0.65,0,0,0.037,101,48.65)">T</text>
  <text fill="#F9A500" x="0" y="0"  transform="matrix(0.55,0,0,0.050,100,46.8)">G</text>
  <text fill="#00BB00" x="0" y="0"  transform="matrix(0.53,0,0,0.906,102,44.3)">A</text>
  
  <text fill="#F9A500" x="0" y="0"  transform="matrix(0.55,0,0,0.021,125,49)">G</text>
  <text fill="#DD0000" x="0" y="0"  transform="matrix(0.65,0,0,0.054,126,47.95)">T</text>
  <text fill="#0000EE" x="0" y="0"  transform="matrix(0.59,0,0,0.139,125,45.25)">C</text>
  <text fill="#00BB00" x="0" y="0"  transform="matrix(0.53,0,0,0.785,127,38.3)">A</text>
  
  <text fill="#0000EE" x="0" y="0"  transform="matrix(0.59,0,0,0.013,150,49)">C</text>
  <text fill="#F9A500" x="0" y="0"  transform="matrix(0.55,0,0,0.031,150,48.35)">G</text>
  <text fill="#00BB00" x="0" y="0"  transform="matrix(0.53,0,0,0.210,152,46.8)">A</text>
  <text fill="#DD0000" x="0" y="0"  transform="matrix(0.65,0,0,0.746,151,36.3)">T</text>
  
  <text fill="#00BB00" x="0" y="0"  transform="matrix(0.53,0,0,0.003,177,49)">A</text>
  <text fill="#0000EE" x="0" y="0"  transform="matrix(0.59,0,0,0.003,175,48.85)">C</text>
  <text fill="#DD0000" x="0" y="0"  transform="matrix(0.65,0,0,0.412,176,48.7)">T</text>
  <text fill="#F9A500" x="0" y="0"  transform="matrix(0.55,0,0,0.582,175,28.1)">G</text>
  
  <text fill="#0000EE" x="0" y="0"  transform="matrix(0.59,0,0,0.013,200,49)">C</text>
  <text fill="#F9A500" x="0" y="0"  transform="matrix(0.55,0,0,0.050,200,48.35)">G</text>
  <text fill="#DD0000" x="0" y="0"  transform="matrix(0.65,0,0,0.216,201,45.85)">T</text>
  <text fill="#00BB00" x="0" y="0"  transform="matrix(0.53,0,0,0.720,202,35.05)">A</text>
  
  <text fill="#0000EE" x="0" y="0"  transform="matrix(0.59,0,0,0.027,225,49)">C</text>
  <text fill="#F9A500" x="0" y="0"  transform="matrix(0.55,0,0,0.066,225,47.65)">G</text>
  <text fill="#00BB00" x="0" y="0"  transform="matrix(0.53,0,0,0.082,227,44.35)">A</text>
  <text fill="#DD0000" x="0" y="0"  transform="matrix(0.65,0,0,0.825,226,40.25)">T</text>
  
  <text fill="#F9A500" x="0" y="0"  transform="matrix(0.55,0,0,0.015,250,49)">G</text>
  <text fill="#00BB00" x="0" y="0"  transform="matrix(0.53,0,0,0.027,252,48.25)">A</text>
  <text fill="#0000EE" x="0" y="0"  transform="matrix(0.59,0,0,0.068,250,46.9)">C</text>
  <text fill="#DD0000" x="0" y="0"  transform="matrix(0.65,0,0,0.890,251,43.5)">T</text>
  
  <text fill="#0000EE" x="0" y="0"  transform="matrix(0.59,0,0,0.043,275,49)">C</text>
  <text fill="#F9A500" x="0" y="0"  transform="matrix(0.55,0,0,0.074,275,46.85)">G</text>
  <text fill="#DD0000" x="0" y="0"  transform="matrix(0.65,0,0,0.165,276,43.15)">T</text>
  <text fill="#00BB00" x="0" y="0"  transform="matrix(0.53,0,0,0.718,277,34.9)">A</text>
  
  <text fill="#DD0000" x="0" y="0"  transform="matrix(0.65,0,0,0.066,301,49)">T</text>
  <text fill="#0000EE" x="0" y="0"  transform="matrix(0.59,0,0,0.082,300,45.7)">C</text>
  <text fill="#F9A500" x="0" y="0"  transform="matrix(0.55,0,0,0.084,300,41.6)">G</text>
  <text fill="#00BB00" x="0" y="0"  transform="matrix(0.53,0,0,0.768,302,37.4)">A</text>
  
  <text fill="#F9A500" x="0" y="0"  transform="matrix(0.55,0,0,0.039,325,49)">G</text>
  <text fill="#00BB00" x="0" y="0"  transform="matrix(0.53,0,0,0.110,327,47.05)">A</text>
  <text fill="#DD0000" x="0" y="0"  transform="matrix(0.65,0,0,0.135,326,41.55)">T</text>
  <text fill="#0000EE" x="0" y="0"  transform="matrix(0.59,0,0,0.716,325,34.8)">C</text>
  
  <text fill="#F9A500" x="0" y="0"  transform="matrix(0.55,0,0,0.035,350,49)">G</text>
  <text fill="#00BB00" x="0" y="0"  transform="matrix(0.53,0,0,0.216,352,47.25)">A</text>
  <text fill="#0000EE" x="0" y="0"  transform="matrix(0.59,0,0,0.339,350,36.45)">C</text>
  <text fill="#DD0000" x="0" y="0"  transform="matrix(0.65,0,0,0.410,351,19.5)">T</text>
  
 </g>
</svg>
